<mxfile host="app.diagrams.net" modified="2024-04-01T05:03:25.738Z" agent="Mozilla/5.0 (Windows NT 10.0; Win64; x64) AppleWebKit/537.36 (KHTML, like Gecko) Chrome/123.0.0.0 Safari/537.36" etag="8kyLsv_aT4eW9VSZBjE1" version="24.2.1" type="github">
  <diagram name="SE khách hàng đăng ký" id="fa5YCkhHWv3wddozFDKN">
    <mxGraphModel dx="1687" dy="922" grid="1" gridSize="10" guides="1" tooltips="1" connect="1" arrows="1" fold="1" page="1" pageScale="1" pageWidth="827" pageHeight="1169" math="0" shadow="0">
      <root>
        <mxCell id="0" />
        <mxCell id="1" parent="0" />
        <mxCell id="diUgbWiiHCtu9BBbHfMP-9" style="edgeStyle=orthogonalEdgeStyle;rounded=0;orthogonalLoop=1;jettySize=auto;html=1;curved=0;" edge="1" parent="1" source="diUgbWiiHCtu9BBbHfMP-1" target="diUgbWiiHCtu9BBbHfMP-4">
          <mxGeometry relative="1" as="geometry">
            <Array as="points">
              <mxPoint x="210" y="280" />
              <mxPoint x="210" y="280" />
            </Array>
          </mxGeometry>
        </mxCell>
        <mxCell id="diUgbWiiHCtu9BBbHfMP-1" value="" style="html=1;points=[[0,0,0,0,5],[0,1,0,0,-5],[1,0,0,0,5],[1,1,0,0,-5]];perimeter=orthogonalPerimeter;outlineConnect=0;targetShapes=umlLifeline;portConstraint=eastwest;newEdgeStyle={&quot;curved&quot;:0,&quot;rounded&quot;:0};" vertex="1" parent="1">
          <mxGeometry x="150" y="160" width="10" height="440" as="geometry" />
        </mxCell>
        <mxCell id="diUgbWiiHCtu9BBbHfMP-2" value="Khách hàng" style="shape=umlActor;verticalLabelPosition=bottom;verticalAlign=top;html=1;" vertex="1" parent="1">
          <mxGeometry x="140" y="80" width="30" height="60" as="geometry" />
        </mxCell>
        <mxCell id="diUgbWiiHCtu9BBbHfMP-4" value="" style="html=1;points=[[0,0,0,0,5],[0,1,0,0,-5],[1,0,0,0,5],[1,1,0,0,-5]];perimeter=orthogonalPerimeter;outlineConnect=0;targetShapes=umlLifeline;portConstraint=eastwest;newEdgeStyle={&quot;curved&quot;:0,&quot;rounded&quot;:0};" vertex="1" parent="1">
          <mxGeometry x="315" y="240" width="10" height="80" as="geometry" />
        </mxCell>
        <mxCell id="diUgbWiiHCtu9BBbHfMP-5" value="Form đăng kí" style="html=1;whiteSpace=wrap;" vertex="1" parent="1">
          <mxGeometry x="290" y="110" width="60" height="45" as="geometry" />
        </mxCell>
        <mxCell id="diUgbWiiHCtu9BBbHfMP-7" value="1: Yêu cầu đăng kí" style="text;html=1;align=center;verticalAlign=middle;resizable=0;points=[];autosize=1;strokeColor=none;fillColor=none;" vertex="1" parent="1">
          <mxGeometry x="170" y="248" width="120" height="30" as="geometry" />
        </mxCell>
        <mxCell id="diUgbWiiHCtu9BBbHfMP-26" style="edgeStyle=orthogonalEdgeStyle;rounded=0;orthogonalLoop=1;jettySize=auto;html=1;curved=0;" edge="1" parent="1" source="diUgbWiiHCtu9BBbHfMP-10" target="diUgbWiiHCtu9BBbHfMP-13">
          <mxGeometry relative="1" as="geometry">
            <Array as="points">
              <mxPoint x="490" y="360" />
              <mxPoint x="490" y="360" />
            </Array>
          </mxGeometry>
        </mxCell>
        <mxCell id="diUgbWiiHCtu9BBbHfMP-10" value="" style="html=1;points=[[0,0,0,0,5],[0,1,0,0,-5],[1,0,0,0,5],[1,1,0,0,-5]];perimeter=orthogonalPerimeter;outlineConnect=0;targetShapes=umlLifeline;portConstraint=eastwest;newEdgeStyle={&quot;curved&quot;:0,&quot;rounded&quot;:0};" vertex="1" parent="1">
          <mxGeometry x="452" y="290" width="10" height="80" as="geometry" />
        </mxCell>
        <mxCell id="diUgbWiiHCtu9BBbHfMP-11" value="Data Control" style="ellipse;shape=umlControl;whiteSpace=wrap;html=1;" vertex="1" parent="1">
          <mxGeometry x="420" y="92.5" width="70" height="80" as="geometry" />
        </mxCell>
        <mxCell id="diUgbWiiHCtu9BBbHfMP-12" value="Database user" style="ellipse;shape=umlEntity;whiteSpace=wrap;html=1;" vertex="1" parent="1">
          <mxGeometry x="530" y="92.5" width="80" height="80" as="geometry" />
        </mxCell>
        <mxCell id="diUgbWiiHCtu9BBbHfMP-28" style="edgeStyle=orthogonalEdgeStyle;rounded=0;orthogonalLoop=1;jettySize=auto;html=1;curved=0;" edge="1" parent="1" source="diUgbWiiHCtu9BBbHfMP-13" target="diUgbWiiHCtu9BBbHfMP-13">
          <mxGeometry relative="1" as="geometry">
            <mxPoint x="580" y="450" as="targetPoint" />
            <Array as="points">
              <mxPoint x="600" y="400" />
              <mxPoint x="600" y="430" />
            </Array>
          </mxGeometry>
        </mxCell>
        <mxCell id="diUgbWiiHCtu9BBbHfMP-30" style="edgeStyle=orthogonalEdgeStyle;rounded=0;orthogonalLoop=1;jettySize=auto;html=1;curved=0;dashed=1;" edge="1" parent="1">
          <mxGeometry relative="1" as="geometry">
            <mxPoint x="565" y="478.9999999999999" as="sourcePoint" />
            <mxPoint x="462" y="481.9999999999999" as="targetPoint" />
            <Array as="points">
              <mxPoint x="565" y="482" />
            </Array>
          </mxGeometry>
        </mxCell>
        <mxCell id="diUgbWiiHCtu9BBbHfMP-13" value="" style="html=1;points=[[0,0,0,0,5],[0,1,0,0,-5],[1,0,0,0,5],[1,1,0,0,-5]];perimeter=orthogonalPerimeter;outlineConnect=0;targetShapes=umlLifeline;portConstraint=eastwest;newEdgeStyle={&quot;curved&quot;:0,&quot;rounded&quot;:0};" vertex="1" parent="1">
          <mxGeometry x="565" y="330" width="10" height="170" as="geometry" />
        </mxCell>
        <mxCell id="diUgbWiiHCtu9BBbHfMP-14" value="" style="html=1;points=[[0,0,0,0,5],[0,1,0,0,-5],[1,0,0,0,5],[1,1,0,0,-5]];perimeter=orthogonalPerimeter;outlineConnect=0;targetShapes=umlLifeline;portConstraint=eastwest;newEdgeStyle={&quot;curved&quot;:0,&quot;rounded&quot;:0};" vertex="1" parent="1">
          <mxGeometry x="452" y="465" width="10" height="65" as="geometry" />
        </mxCell>
        <mxCell id="diUgbWiiHCtu9BBbHfMP-15" value="" style="html=1;points=[[0,0,0,0,5],[0,1,0,0,-5],[1,0,0,0,5],[1,1,0,0,-5]];perimeter=orthogonalPerimeter;outlineConnect=0;targetShapes=umlLifeline;portConstraint=eastwest;newEdgeStyle={&quot;curved&quot;:0,&quot;rounded&quot;:0};" vertex="1" parent="1">
          <mxGeometry x="315" y="500" width="10" height="55" as="geometry" />
        </mxCell>
        <mxCell id="diUgbWiiHCtu9BBbHfMP-17" value="" style="endArrow=none;dashed=1;html=1;rounded=0;entryX=0.5;entryY=1;entryDx=0;entryDy=0;" edge="1" parent="1" source="diUgbWiiHCtu9BBbHfMP-4" target="diUgbWiiHCtu9BBbHfMP-5">
          <mxGeometry width="50" height="50" relative="1" as="geometry">
            <mxPoint x="390" y="390" as="sourcePoint" />
            <mxPoint x="440" y="340" as="targetPoint" />
          </mxGeometry>
        </mxCell>
        <mxCell id="diUgbWiiHCtu9BBbHfMP-19" value="" style="endArrow=none;dashed=1;html=1;rounded=0;" edge="1" parent="1" source="diUgbWiiHCtu9BBbHfMP-15" target="diUgbWiiHCtu9BBbHfMP-4">
          <mxGeometry width="50" height="50" relative="1" as="geometry">
            <mxPoint x="390" y="390" as="sourcePoint" />
            <mxPoint x="320" y="330" as="targetPoint" />
          </mxGeometry>
        </mxCell>
        <mxCell id="diUgbWiiHCtu9BBbHfMP-20" style="edgeStyle=orthogonalEdgeStyle;rounded=0;orthogonalLoop=1;jettySize=auto;html=1;curved=0;entryX=0.973;entryY=1.019;entryDx=0;entryDy=0;entryPerimeter=0;" edge="1" parent="1" target="diUgbWiiHCtu9BBbHfMP-21">
          <mxGeometry relative="1" as="geometry">
            <mxPoint x="325" y="308.02857142857135" as="sourcePoint" />
            <mxPoint x="452" y="308" as="targetPoint" />
            <Array as="points">
              <mxPoint x="390" y="308" />
            </Array>
          </mxGeometry>
        </mxCell>
        <mxCell id="diUgbWiiHCtu9BBbHfMP-21" value="1.1: Yêu cầu kiểm tra" style="text;html=1;align=center;verticalAlign=middle;resizable=0;points=[];autosize=1;strokeColor=none;fillColor=none;" vertex="1" parent="1">
          <mxGeometry x="315" y="278" width="140" height="30" as="geometry" />
        </mxCell>
        <mxCell id="diUgbWiiHCtu9BBbHfMP-22" value="" style="endArrow=none;dashed=1;html=1;rounded=0;entryX=0.535;entryY=1.011;entryDx=0;entryDy=0;entryPerimeter=0;exitX=1.017;exitY=0.383;exitDx=0;exitDy=0;exitPerimeter=0;" edge="1" parent="1" source="diUgbWiiHCtu9BBbHfMP-21" target="diUgbWiiHCtu9BBbHfMP-11">
          <mxGeometry width="50" height="50" relative="1" as="geometry">
            <mxPoint x="340" y="290" as="sourcePoint" />
            <mxPoint x="390" y="240" as="targetPoint" />
          </mxGeometry>
        </mxCell>
        <mxCell id="diUgbWiiHCtu9BBbHfMP-23" value="" style="endArrow=none;dashed=1;html=1;rounded=0;" edge="1" parent="1" source="diUgbWiiHCtu9BBbHfMP-14">
          <mxGeometry width="50" height="50" relative="1" as="geometry">
            <mxPoint x="457" y="460" as="sourcePoint" />
            <mxPoint x="457.0000000000001" y="370" as="targetPoint" />
          </mxGeometry>
        </mxCell>
        <mxCell id="diUgbWiiHCtu9BBbHfMP-25" value="" style="endArrow=none;dashed=1;html=1;rounded=0;entryX=0.5;entryY=1;entryDx=0;entryDy=0;" edge="1" parent="1" source="diUgbWiiHCtu9BBbHfMP-13" target="diUgbWiiHCtu9BBbHfMP-12">
          <mxGeometry width="50" height="50" relative="1" as="geometry">
            <mxPoint x="470" y="270" as="sourcePoint" />
            <mxPoint x="520" y="220" as="targetPoint" />
          </mxGeometry>
        </mxCell>
        <mxCell id="diUgbWiiHCtu9BBbHfMP-27" value="1.1.1: Thông tin" style="text;html=1;align=center;verticalAlign=middle;resizable=0;points=[];autosize=1;strokeColor=none;fillColor=none;" vertex="1" parent="1">
          <mxGeometry x="452" y="330" width="110" height="30" as="geometry" />
        </mxCell>
        <mxCell id="diUgbWiiHCtu9BBbHfMP-29" value="1.1.1.1: Xử lý&amp;nbsp;" style="text;html=1;align=center;verticalAlign=middle;resizable=0;points=[];autosize=1;strokeColor=none;fillColor=none;" vertex="1" parent="1">
          <mxGeometry x="594" y="398" width="100" height="30" as="geometry" />
        </mxCell>
        <mxCell id="diUgbWiiHCtu9BBbHfMP-31" value="1.1.1.2: Kết quả" style="text;html=1;align=center;verticalAlign=middle;resizable=0;points=[];autosize=1;strokeColor=none;fillColor=none;" vertex="1" parent="1">
          <mxGeometry x="462" y="448" width="110" height="30" as="geometry" />
        </mxCell>
        <mxCell id="diUgbWiiHCtu9BBbHfMP-32" style="edgeStyle=orthogonalEdgeStyle;rounded=0;orthogonalLoop=1;jettySize=auto;html=1;curved=0;entryX=1;entryY=0;entryDx=0;entryDy=5;entryPerimeter=0;dashed=1;" edge="1" parent="1">
          <mxGeometry relative="1" as="geometry">
            <mxPoint x="452" y="512.9999999999999" as="sourcePoint" />
            <mxPoint x="325" y="513" as="targetPoint" />
            <Array as="points">
              <mxPoint x="420" y="513" />
              <mxPoint x="420" y="513" />
            </Array>
          </mxGeometry>
        </mxCell>
        <mxCell id="diUgbWiiHCtu9BBbHfMP-33" value="1.1.1.2.1: Kết quả" style="text;html=1;align=center;verticalAlign=middle;resizable=0;points=[];autosize=1;strokeColor=none;fillColor=none;" vertex="1" parent="1">
          <mxGeometry x="325" y="478" width="120" height="30" as="geometry" />
        </mxCell>
        <mxCell id="diUgbWiiHCtu9BBbHfMP-34" value="" style="endArrow=none;dashed=1;html=1;rounded=0;" edge="1" parent="1">
          <mxGeometry width="50" height="50" relative="1" as="geometry">
            <mxPoint x="320" y="556" as="sourcePoint" />
            <mxPoint x="320" y="600" as="targetPoint" />
          </mxGeometry>
        </mxCell>
        <mxCell id="diUgbWiiHCtu9BBbHfMP-35" value="" style="endArrow=none;dashed=1;html=1;rounded=0;" edge="1" parent="1">
          <mxGeometry width="50" height="50" relative="1" as="geometry">
            <mxPoint x="456.86" y="530" as="sourcePoint" />
            <mxPoint x="457" y="600" as="targetPoint" />
          </mxGeometry>
        </mxCell>
        <mxCell id="diUgbWiiHCtu9BBbHfMP-36" value="" style="endArrow=none;dashed=1;html=1;rounded=0;" edge="1" parent="1">
          <mxGeometry width="50" height="50" relative="1" as="geometry">
            <mxPoint x="569.86" y="500" as="sourcePoint" />
            <mxPoint x="570" y="600" as="targetPoint" />
          </mxGeometry>
        </mxCell>
      </root>
    </mxGraphModel>
  </diagram>
</mxfile>
